HIERARCHY
ROOT Hips
{
	OFFSET	0.00	0.00	0.00
	CHANNELS 6 Xposition Yposition Zposition Zrotation Xrotation Yrotation
	JOINT LeftUpLeg
	{
		OFFSET	 0.126116	-0.065224	 0.014019
		CHANNELS 3 Zrotation Xrotation Yrotation
		JOINT LeftLeg
		{
			OFFSET	 0.000000	 0.569914	 0.000000
			CHANNELS 3 Zrotation Xrotation Yrotation
			JOINT LeftFoot
			{
				OFFSET	 0.000000	 0.544423	 0.000000
				CHANNELS 3 Zrotation Xrotation Yrotation
				JOINT LeftToeBase
				{
					OFFSET	 0.000000	 0.207117	 0.000000
					CHANNELS 3 Zrotation Xrotation Yrotation
					End Site
					{
						OFFSET	 0.000000	 0.207117	 0.000000
					}
				}
			}
		}
	}
	JOINT RightUpLeg
	{
		OFFSET	-0.124023	-0.065224	 0.008373
		CHANNELS 3 Zrotation Xrotation Yrotation
		JOINT RightLeg
		{
			OFFSET	 0.000000	 0.570047	 0.000000
			CHANNELS 3 Zrotation Xrotation Yrotation
			JOINT RightFoot
			{
				OFFSET	 0.000000	 0.544354	 0.000000
				CHANNELS 3 Zrotation Xrotation Yrotation
				JOINT RightToeBase
				{
					OFFSET	 0.000000	 0.207540	 0.000000
					CHANNELS 3 Zrotation Xrotation Yrotation
					End Site
					{
						OFFSET	 0.000000	 0.207540	 0.000000
					}
				}
			}
		}
	}
	JOINT Spine
	{
		OFFSET	 0.000184	 0.117403	 0.007763
		CHANNELS 3 Zrotation Xrotation Yrotation
		JOINT Spine1
		{
			OFFSET	 0.000000	 0.137269	 0.000000
			CHANNELS 3 Zrotation Xrotation Yrotation
			JOINT Spine2
			{
				OFFSET	 0.000000	 0.156879	 0.000000
				CHANNELS 3 Zrotation Xrotation Yrotation
				JOINT LeftShoulder
				{
					OFFSET	 0.080501	 0.160143	 0.002496
					CHANNELS 3 Zrotation Xrotation Yrotation
					JOINT LeftArm
					{
						OFFSET	 0.000000	 0.164363	 0.000000
						CHANNELS 3 Zrotation Xrotation Yrotation
						JOINT LeftForeArm
						{
							OFFSET	 0.000000	 0.364576	 0.000000
							CHANNELS 3 Zrotation Xrotation Yrotation
							JOINT LeftHand
							{
								OFFSET	 0.000000	 0.360812	 0.000000
								CHANNELS 3 Zrotation Xrotation Yrotation
								JOINT LeftHandIndex1
								{
									OFFSET	 0.000000	 0.086006	 0.000000
									CHANNELS 3 Zrotation Xrotation Yrotation
									JOINT LeftHandIndex2
									{
										OFFSET	 0.000000	 0.047237	 0.000000
										CHANNELS 3 Zrotation Xrotation Yrotation
										JOINT LeftHandIndex3
										{
											OFFSET	-0.004284	 0.038165	 0.000551
											CHANNELS 3 Zrotation Xrotation Yrotation
											End Site
											{
												OFFSET	-0.004284	 0.038165	 0.000551
											}
										}
									}
								}
							}
						}
					}
				}
				JOINT Neck
				{
					OFFSET	 0.000000	 0.176489	 0.000000
					CHANNELS 3 Zrotation Xrotation Yrotation
					JOINT Head
					{
						OFFSET	 0.000000	 0.077941	 0.001747
						CHANNELS 3 Zrotation Xrotation Yrotation
						End Site
						{
							OFFSET	 0.000000	 0.077941	 0.001747
						}
					}
				}
				JOINT RightShoulder
				{
					OFFSET	-0.080363	 0.159706	-0.000306
					CHANNELS 3 Zrotation Xrotation Yrotation
					JOINT RightArm
					{
						OFFSET	 0.000000	 0.164196	 0.000000
						CHANNELS 3 Zrotation Xrotation Yrotation
						JOINT RightForeArm
						{
							OFFSET	 0.000000	 0.365611	 0.000000
							CHANNELS 3 Zrotation Xrotation Yrotation
							JOINT RightHand
							{
								OFFSET	 0.000000	 0.360648	 0.000000
								CHANNELS 3 Zrotation Xrotation Yrotation
								JOINT RightHandIndex1
								{
									OFFSET	 0.000000	 0.069977	 0.000000
									CHANNELS 3 Zrotation Xrotation Yrotation
									JOINT RightHandIndex2
									{
										OFFSET	 0.000000	 0.052305	 0.000000
										CHANNELS 3 Zrotation Xrotation Yrotation
										JOINT RightHandIndex3
										{
											OFFSET	 0.009002	 0.042196	 0.000782
											CHANNELS 3 Zrotation Xrotation Yrotation
											End Site
											{
												OFFSET	 0.009002	 0.042196	 0.000782
											}
										}
									}
								}
							}
						}
					}
				}
			}
		}
	}
}
MOTION
Frames:    8
Frame Time: 0.03333334
 0.442761	 1.196241	 0.579266	-1.257252	-21.537010	-174.959300	 172.982700	 49.474510	-4.664956	 11.836780	-37.673000	 19.475980	 36.672730	 68.269950	-32.464280	 1.292262	 28.425850	-2.713146	 168.065600	 51.454200	 18.529150	-9.237968	-39.869340	-15.394640	-35.965180	 65.892190	 31.528550	-1.288183	 28.361890	 2.710176	 0.589457	 3.769225	-3.310602	 1.044443	 10.211190	-2.109619	 0.994751	-7.620805	 1.939347	-117.865500	 16.798850	 98.074130	 55.597590	 38.838620	 7.048692	 4.980522	-0.404727	-31.000970	 51.637490	-26.582520	 18.154460	-6.580301	 5.266122	 0.000000	 0.000000	 0.000000	 0.000000	 0.000000	 0.000000	 0.000000	-1.898497	-2.397771	-1.151103	 0.329891	-10.310040	-0.165651	 122.586600	 16.569670	-99.419480	-34.791200	 23.968170	-4.996076	-55.564950	 1.127324	-8.684385	-31.962510	-24.930500	-23.813520	 15.208500	 5.323790	 0.000000	 0.000000	 0.000000	 0.000000	 0.000000	 0.000000	 0.000000
 0.443005	 1.225884	 0.554191	-0.436538	-16.631930	-174.283300	 175.656500	 39.198720	-6.230610	 9.089858	-30.739320	 16.603170	 29.908630	 67.505860	-25.939150	 1.292262	 28.425850	-2.713146	 171.020800	 40.998470	 17.843190	-6.822429	-31.717930	-10.627360	-26.259870	 65.897990	 21.149640	-1.288183	 28.361890	 2.710176	 0.595697	 2.608735	-3.065244	 1.112174	 7.067647	-2.005118	 0.940254	-7.742530	 1.724118	-119.100300	 14.010130	 96.974860	 52.467330	 42.001340	 11.776400	 4.974068	-0.404254	-27.622390	 52.177860	-26.326350	 16.772670	-6.580301	 5.266122	 0.000000	 0.000000	 0.000000	 0.000000	 0.000000	 0.000000	 0.000000	-1.414339	-0.528899	-1.350639	 0.014787	-10.264570	-0.158985	 124.161400	 13.717700	-98.251120	-30.059040	 24.040120	-7.555713	-63.613850	 1.224416	-10.454230	-25.986900	-22.148890	-18.880980	 15.208500	 5.323790	 0.000000	 0.000000	 0.000000	 0.000000	 0.000000	 0.000000	 0.000000
 0.444572	 1.241753	 0.533640	-0.112524	-13.400490	-174.256600	 177.224800	 32.359030	-7.351848	 7.596635	-26.456030	 14.103820	 24.051050	 67.557240	-20.225940	 1.292262	 28.425850	-2.713146	 172.691300	 33.884270	 17.413240	-5.612000	-26.966080	-6.991876	-18.330400	 66.265120	 12.794030	-1.288183	 28.361890	 2.710176	 0.503910	 1.907084	-2.764392	 1.169889	 6.354094	-1.864600	 0.590652	-8.117902	 1.433582	-119.517400	 11.748250	 95.954200	 51.262440	 43.230900	 14.047520	 4.977574	-0.404529	-24.849450	 52.717130	-25.564660	 15.744830	-6.580301	 5.266122	 0.000000	 0.000000	 0.000000	 0.000000	 0.000000	 0.000000	 0.000000	-0.645430	 1.728803	-1.607387	-0.227606	-10.341650	-0.124781	 124.621500	 11.528560	-97.171210	-28.772330	 24.625110	-8.130303	-67.086490	 1.258861	-11.874410	-23.079420	-20.457690	-15.776590	 15.208500	 5.323790	 0.000000	 0.000000	 0.000000	 0.000000	 0.000000	 0.000000	 0.000000
 0.445671	 1.249481	 0.520008	 0.162863	-12.531030	-174.405400	 178.118300	 29.522440	-8.047756	 6.818090	-24.078920	 12.600330	 20.643430	 67.551730	-16.725450	 1.292262	 28.425850	-2.713146	 173.513900	 30.693380	 17.254260	-4.970448	-24.264610	-5.022847	-13.996090	 66.295940	 8.177339	-1.288183	 28.361890	 2.710176	 0.424151	 1.602046	-2.562779	 1.118569	 5.896543	-1.774862	 0.341674	-8.273975	 1.233263	-119.617100	 10.363780	 95.302220	 51.715050	 44.103810	 15.123030	 5.005679	-0.406806	-23.146970	 53.556820	-25.428080	 15.797300	-6.580301	 5.266122	 0.000000	 0.000000	 0.000000	 0.000000	 0.000000	 0.000000	 0.000000	-0.205610	 3.160989	-1.774643	-0.199245	-10.026750	-0.121769	 124.676600	 10.244720	-96.495630	-29.026190	 26.021160	-8.449310	-67.850370	 1.265909	-12.847340	-21.768710	-20.109280	-14.722560	 15.208500	 5.323790	 0.000000	 0.000000	 0.000000	 0.000000	 0.000000	 0.000000	 0.000000
 0.447824	 1.262590	 0.496068	 0.519009	-9.649641	-174.066000	 179.175200	 22.210270	-8.235695	 5.370458	-19.408020	 9.707724	 13.787560	 67.566840	-9.854486	 1.292262	 28.425850	-2.713146	 174.890400	 23.342110	 17.021460	-3.665637	-18.398660	-1.838177	-6.720367	 65.356510	 0.535991	-1.288183	 28.361890	 2.710176	 0.253833	 1.451907	-2.102197	 0.840994	 2.752864	-1.557570	 0.030919	-7.024383	 0.975648	-119.951000	 7.888082	 94.146470	 49.192650	 45.243930	 19.003620	 5.006703	-0.406872	-20.290750	 54.595030	-24.548760	 14.013980	-6.580301	 5.266122	 0.000000	 0.000000	 0.000000	 0.000000	 0.000000	 0.000000	 0.000000	 0.218013	 5.976726	-1.875186	 0.062591	-9.066486	-0.183811	 124.408200	 8.190163	-95.367430	-27.094770	 25.366170	-8.078239	-71.995540	 1.299770	-14.273330	-17.381740	-16.920870	-8.947611	 15.208500	 5.323790	 0.000000	 0.000000	 0.000000	 0.000000	 0.000000	 0.000000	 0.000000
 0.448456	 1.270853	 0.477925	 0.713501	-6.858485	-173.831000	 179.979800	 16.231190	-8.360587	 4.122099	-15.140620	 7.189714	 7.717480	 67.150400	-3.718055	 1.292262	 28.425850	-2.713146	 175.939200	 16.683990	 17.155320	-2.593707	-13.248480	 0.177283	-2.216612	 64.129880	-4.089992	-1.288183	 28.361890	 2.710176	 0.166484	 1.434793	-1.714061	 0.644586	 0.634238	-1.350233	-0.096135	-5.923023	 0.738743	-120.598800	 5.599179	 93.088390	 45.857670	 44.380820	 20.750470	 5.026421	-0.408523	-17.987100	 55.056450	-22.213700	 10.807680	-6.580301	 5.266122	 0.000000	 0.000000	 0.000000	 0.000000	 0.000000	 0.000000	 0.000000	 0.296641	 8.052768	-1.751127	 0.331788	-7.931952	-0.297377	 123.913200	 6.552482	-94.447660	-24.057670	 24.087490	-7.657298	-73.567200	 1.310910	-15.127690	-16.640980	-13.973310	-3.953387	 15.208500	 5.323790	 0.000000	 0.000000	 0.000000	 0.000000	 0.000000	 0.000000	 0.000000
 0.448298	 1.273401	 0.469893	 0.677552	-5.204270	-174.164400	-179.636200	 13.354590	-8.869119	 3.761564	-13.871640	 6.404641	 5.577195	 67.054880	-1.767085	 1.292262	 28.425850	-2.713146	 176.254700	 13.820420	 16.758820	-2.327662	-11.931340	 0.129730	-2.034265	 63.832130	-3.997552	-1.288183	 28.361890	 2.710176	 0.153000	 1.256640	-1.378818	 0.515754	 0.717583	-1.118015	-0.095511	-6.226173	 0.500800	-121.138500	 4.515905	 92.590600	 43.557430	 43.267440	 21.360100	 5.062411	-0.404053	-17.508080	 55.996930	-20.192100	 8.936126	-6.580301	 5.266122	 0.000000	 0.000000	 0.000000	 0.000000	 0.000000	 0.000000	 0.000000	 0.345767	 7.617790	-1.635756	 0.316863	-6.877828	-0.375531	 123.734100	 5.889037	-94.082670	-21.999050	 23.786740	-8.004728	-72.255010	 1.301738	-15.329000	-18.909800	-14.023570	-2.695822	 15.208500	 5.323790	 0.000000	 0.000000	 0.000000	 0.000000	 0.000000	 0.000000	 0.000000
 0.447217	 1.276679	 0.460744	 0.616064	-3.587922	-174.466400	-179.373300	 10.592330	-9.293167	 3.469215	-12.831970	 5.663628	 3.612118	 67.084980	 0.054706	 1.292262	 28.425850	-2.713146	 176.443700	 10.777080	 16.410670	-2.006190	-10.322340	 0.032639	-1.919134	 63.443500	-3.794718	-1.288183	 28.361890	 2.710176	 0.117455	 1.203889	-1.026756	 0.277755	-0.615553	-0.894810	-0.042066	-5.840873	 0.229450	-121.640400	 3.527814	 92.126270	 37.538650	 40.635000	 24.389920	 10.384450	-0.834803	-17.140970	 54.192920	-17.697810	 6.812865	-6.580301	 5.266122	 0.000000	 0.000000	 0.000000	 0.000000	 0.000000	 0.000000	 0.000000	 0.391495	 7.219466	-1.529854	 0.300483	-5.912352	-0.462393	 123.573900	 5.280368	-93.750550	-19.314780	 23.215470	-8.697242	-69.492790	 1.280117	-15.547940	-22.664220	-14.372390	-1.140647	 15.208500	 5.323790	 0.000000	 0.000000	 0.000000	 0.000000	 0.000000	 0.000000	 0.000000
